<?xml version="1.0" standalone="no"?>
<!DOCTYPE svg PUBLIC "-//W3C//DTD SVG 20010904//EN"
 "http://www.w3.org/TR/2001/REC-SVG-20010904/DTD/svg10.dtd">
<svg version="1.0" xmlns="http://www.w3.org/2000/svg"
 width="700.000000pt" height="700.000000pt" viewBox="0 0 700.000000 700.000000"
 preserveAspectRatio="xMidYMid meet">
<metadata>
Created by potrace 1.14, written by Peter Selinger 2001-2017
</metadata>
<g transform="translate(0.000000,700.000000) scale(0.100000,-0.100000)"
fill="#000000" stroke="none">
<path d="M3219 6996 c-2 -2 -39 -6 -81 -10 -43 -4 -83 -8 -90 -11 -7 -2 -35
-6 -63 -9 -44 -5 -149 -23 -239 -41 -74 -15 -365 -99 -401 -115 -11 -5 -56
-23 -100 -39 -144 -53 -269 -112 -445 -209 -415 -230 -804 -567 -1086 -937
-239 -314 -431 -679 -548 -1042 -36 -112 -82 -280 -92 -336 -2 -17 -6 -33 -8
-36 -2 -3 -7 -31 -11 -61 -4 -30 -8 -57 -10 -60 -2 -3 -6 -27 -10 -55 -3 -27
-9 -66 -11 -85 -3 -19 -9 -64 -13 -100 -9 -65 -6 -688 3 -745 2 -16 7 -48 11
-70 6 -41 41 -239 50 -286 27 -140 109 -402 183 -579 132 -320 288 -585 511
-865 131 -164 429 -462 534 -534 12 -8 24 -18 27 -22 16 -21 240 -176 393
-271 77 -48 309 -163 417 -208 58 -23 119 -48 135 -55 134 -56 480 -149 635
-170 25 -3 52 -8 60 -10 8 -2 38 -7 66 -10 28 -3 61 -8 75 -11 38 -10 656 -12
734 -4 77 9 161 21 187 25 9 2 38 7 65 11 26 5 50 8 53 9 3 1 19 4 35 8 17 4
44 9 60 12 153 29 359 91 553 167 95 38 314 141 351 167 12 7 1 27 -55 103
-38 51 -71 95 -74 98 -3 3 -44 57 -90 120 -47 63 -88 120 -93 125 -29 38 -128
172 -271 365 -92 124 -176 236 -186 250 -144 191 -364 497 -454 628 -268 396
-502 742 -670 992 -61 91 -113 167 -116 170 -3 3 -65 95 -139 205 -236 351
-372 547 -377 542 -2 -2 -6 -459 -8 -1015 -4 -954 -6 -1015 -23 -1050 -28 -56
-64 -69 -199 -71 -126 -2 -150 7 -190 66 -17 27 -18 69 -16 803 0 426 1 1046
2 1378 l0 602 35 34 c42 42 59 45 215 42 89 -1 132 -6 148 -16 22 -14 322
-451 322 -469 0 -5 3 -11 8 -13 6 -3 139 -197 152 -223 6 -13 42 -67 53 -80 7
-9 368 -554 595 -900 47 -71 213 -323 370 -560 156 -236 358 -542 449 -680 90
-137 269 -408 396 -600 128 -193 283 -428 346 -523 62 -94 118 -172 125 -172
16 0 190 126 316 229 117 96 332 306 432 421 385 447 646 967 772 1540 14 63
28 135 31 160 4 25 10 65 15 91 5 25 12 79 17 120 10 94 10 664 0 744 -4 33
-10 78 -12 100 -3 22 -8 56 -11 75 -3 19 -8 46 -10 60 -33 193 -130 541 -188
673 -7 18 -24 57 -36 87 -130 318 -353 673 -595 949 -102 117 -369 373 -437
419 -13 9 -25 19 -28 22 -12 14 -133 103 -230 167 -232 155 -478 279 -755 380
-129 47 -383 120 -480 137 -16 2 -68 12 -115 20 -47 8 -107 18 -135 21 -27 4
-61 9 -75 11 -33 6 -655 15 -661 10z m1501 -2126 c16 -12 36 -31 43 -43 9 -17
12 -291 13 -1264 0 -684 0 -1243 -1 -1243 -2 0 -27 38 -246 375 -54 83 -102
155 -106 160 -5 6 -26 38 -46 72 l-38 61 3 905 3 904 25 36 c38 56 67 63 227
60 77 -1 98 -5 123 -23z"/>
</g>
</svg>
