<svg width="16" height="16" viewBox="0 0 16 16" stroke="currentColor" fill="currentColor" stroke-width="0"
     xmlns="http://www.w3.org/2000/svg">
    <path d="M16 8C15.9814 6.95755 15.7571 5.92904 15.3399 4.97352C14.9227 4.01801 14.3209 3.1543 13.569 2.432C12.4617 1.36195 11.0616 0.644743 9.54627 0.371293C8.0309 0.0978436 6.46846 0.280462 5.057 0.895999C4.134 1.301 3.299 1.888 2.608 2.608C1.917 3.328 1.371 4.182 1.011 5.105C0.28937 6.95905 0.330713 9.02333 1.126 10.847C1.518 11.739 2.087 12.547 2.784 13.215C3.481 13.883 4.307 14.41 5.2 14.758C6.09159 15.1045 7.04269 15.272 7.999 15.251C9.41455 15.2236 10.7902 14.7769 11.9518 13.9675C13.1135 13.1582 14.009 12.0224 14.525 10.704C14.7279 10.1819 14.8672 9.63736 14.94 9.082L14.999 9.084C15.1373 9.08392 15.274 9.05517 15.4006 8.99956C15.5272 8.94396 15.6409 8.8627 15.7345 8.76092C15.8281 8.65915 15.8996 8.53907 15.9444 8.40827C15.9893 8.27747 16.0065 8.13879 15.995 8.001H15.999L16 8ZM14.411 10.655C14.044 11.486 13.513 12.239 12.861 12.861C12.209 13.483 11.439 13.973 10.607 14.295C9.77609 14.6168 8.88976 14.771 7.999 14.749C7.12062 14.73 6.25463 14.5378 5.45068 14.1835C4.64672 13.8291 3.92062 13.3196 3.314 12.684C2.71577 12.0573 2.24685 11.3189 1.934 10.511C1.31247 8.90237 1.35418 7.11292 2.05 5.535C2.392 4.765 2.886 4.067 3.491 3.491C4.096 2.915 4.812 2.462 5.583 2.165C6.354 1.867 7.179 1.727 7.999 1.749C8.819 1.771 9.628 1.951 10.367 2.281C11.107 2.61 11.777 3.086 12.33 3.668C12.883 4.25 13.318 4.938 13.602 5.679C13.8857 6.41868 14.0206 7.20708 13.999 7.999H14.003C13.9814 8.25886 14.0621 8.51688 14.228 8.71807C14.3939 8.91926 14.6318 9.04769 14.891 9.076C14.7946 9.61941 14.6331 10.1492 14.41 10.654L14.411 10.655Z"/>
</svg>
